<svg xmlns="http://www.w3.org/2000/svg" xmlns:xlink="http://www.w3.org/1999/xlink" width="1080" zoomAndPan="magnify" viewBox="0 0 810 809.999993" height="1080" preserveAspectRatio="xMidYMid meet" version="1.0"><defs><filter x="0%" y="0%" width="100%" height="100%" id="48e68e3354"><feColorMatrix values="0 0 0 0 1 0 0 0 0 1 0 0 0 0 1 0 0 0 1 0" color-interpolation-filters="sRGB"/></filter><mask id="ff78f7acc6"><g filter="url(#48e68e3354)"><rect x="-81" width="972" fill="#000000" y="-80.999999" height="971.999992" fill-opacity="0.2"/></g></mask><clipPath id="434397c33c"><path d="M 1 0.949219 L 798.953125 0.949219 L 798.953125 795.199219 L 1 795.199219 Z M 1 0.949219 " clip-rule="nonzero"/></clipPath><clipPath id="28813eee81"><rect x="0" width="800" y="0" height="796"/></clipPath></defs><g mask="url(#ff78f7acc6)"><g transform="matrix(1, 0, 0, 1, 5, 7)"><g clip-path="url(#28813eee81)"><g clip-path="url(#434397c33c)"><path fill="#d9d9d9" d="M 1.324219 293.011719 C 1.324219 409.023438 95.351562 503.054688 211.34375 503.054688 L 798.59375 503.054688 C 798.59375 387.042969 704.5625 293.011719 588.578125 293.011719 Z M 348.703125 211.003906 L 588.578125 211.003906 C 646.566406 211.003906 699.078125 187.5 737.085938 149.496094 C 775.09375 111.488281 798.59375 58.96875 798.59375 0.976562 L 558.71875 0.976562 C 442.730469 0.976562 348.703125 95.007812 348.703125 211.003906 Z M 211.34375 585.0625 L 451.214844 585.0625 C 451.214844 643.058594 427.710938 695.574219 389.707031 733.582031 C 351.699219 771.589844 299.1875 795.089844 241.191406 795.089844 L 1.324219 795.089844 C 1.324219 679.09375 95.351562 585.0625 211.34375 585.0625 " fill-opacity="1" fill-rule="nonzero"/></g></g></g></g></svg>