<svg xmlns="http://www.w3.org/2000/svg" xmlns:xlink="http://www.w3.org/1999/xlink" width="1080" zoomAndPan="magnify" viewBox="0 0 810 809.999993" height="1080" preserveAspectRatio="xMidYMid meet" version="1.0"><defs><clipPath id="f3a0078df2"><path d="M 52 53.527344 L 758 53.527344 L 758 756.277344 L 52 756.277344 Z M 52 53.527344 " clip-rule="nonzero"/></clipPath></defs><g clip-path="url(#f3a0078df2)"><path fill="#8c52ff" d="M 52.09375 312.0625 C 52.09375 414.757812 135.328125 497.992188 238.003906 497.992188 L 757.839844 497.992188 C 757.839844 395.296875 674.605469 312.0625 571.933594 312.0625 Z M 359.59375 239.46875 L 571.933594 239.46875 C 623.265625 239.46875 669.75 218.664062 703.394531 185.023438 C 737.035156 151.378906 757.839844 104.886719 757.839844 53.554688 L 545.503906 53.554688 C 442.828125 53.554688 359.59375 136.789062 359.59375 239.46875 Z M 238.003906 570.589844 L 450.339844 570.589844 C 450.339844 621.925781 429.535156 668.414062 395.894531 702.054688 C 362.25 735.699219 315.765625 756.503906 264.429688 756.503906 L 52.09375 756.503906 C 52.09375 653.824219 135.328125 570.589844 238.003906 570.589844 " fill-opacity="1" fill-rule="nonzero"/></g></svg>