<svg xmlns="http://www.w3.org/2000/svg" xmlns:xlink="http://www.w3.org/1999/xlink" width="1080" zoomAndPan="magnify" viewBox="0 0 810 809.999993" height="1080" preserveAspectRatio="xMidYMid meet" version="1.0"><defs><clipPath id="dd253f822f"><path d="M 25.28125 35.023438 L 785 35.023438 L 785 774.976562 L 25.28125 774.976562 Z M 25.28125 35.023438 " clip-rule="nonzero"/></clipPath><clipPath id="c62a26cccb"><path d="M 175.28125 35.023438 L 634.71875 35.023438 C 717.5625 35.023438 784.71875 102.183594 784.71875 185.023438 L 784.71875 624.976562 C 784.71875 707.816406 717.5625 774.976562 634.71875 774.976562 L 175.28125 774.976562 C 92.4375 774.976562 25.28125 707.816406 25.28125 624.976562 L 25.28125 185.023438 C 25.28125 102.183594 92.4375 35.023438 175.28125 35.023438 Z M 175.28125 35.023438 " clip-rule="nonzero"/></clipPath><clipPath id="3438606892"><path d="M 186.785156 187.875 L 623 187.875 L 623 622.125 L 186.785156 622.125 Z M 186.785156 187.875 " clip-rule="nonzero"/></clipPath></defs><g clip-path="url(#dd253f822f)"><g clip-path="url(#c62a26cccb)"><path fill="#000000" d="M 25.28125 35.023438 L 785.464844 35.023438 L 785.464844 774.976562 L 25.28125 774.976562 Z M 25.28125 35.023438 " fill-opacity="1" fill-rule="nonzero"/></g></g><g clip-path="url(#3438606892)"><path fill="#ffffff" d="M 186.992188 347.585938 C 186.992188 411.023438 238.410156 462.441406 301.839844 462.441406 L 622.964844 462.441406 C 622.964844 399.003906 571.546875 347.585938 508.121094 347.585938 Z M 376.949219 302.738281 L 508.121094 302.738281 C 539.835938 302.738281 568.546875 289.886719 589.332031 269.105469 C 610.113281 248.324219 622.964844 219.605469 622.964844 187.890625 L 491.796875 187.890625 C 428.367188 187.890625 376.949219 239.308594 376.949219 302.738281 Z M 301.839844 507.289062 L 433.007812 507.289062 C 433.007812 539.003906 420.15625 567.71875 399.375 588.503906 C 378.589844 609.285156 349.875 622.136719 318.160156 622.136719 L 186.992188 622.136719 C 186.992188 558.707031 238.410156 507.289062 301.839844 507.289062 " fill-opacity="1" fill-rule="nonzero"/></g></svg>